<svg xmlns="http://www.w3.org/2000/svg" width="21" height="18">
    <defs>
        <clipPath id="a" clipPathUnits="userSpaceOnUse">
            <path d="M0 18.8h20.3V0H0z"/>
        </clipPath>
    </defs>
    
    <mask id="myMask">
        <rect x="0" y="0" width="21" height="18" fill="white" />
        <path fill="black" d="M17 7.3H3.3L2.5 10h15.3zm-1.6-5.8H4.9L3.7 5.8h12.9zm4.1 10.1h-3.1L13 18.4a.8.8 0 01-1.4-.6l3.1-6.2H5.6l3 6.2a.8.8 0 01-1.3.6L4 11.6H.7a.8.8 0 010-1.5H1l.9-3a.7.7 0 01-.4-.6c0-.4.4-.7.7-.7L3.8 0h12.7l1.7 5.8c.3 0 .6.3.6.7 0 .3 0 .5-.3.6l.9 3h.1a.8.8 0 010 1.5"/>
    </mask>

    <polygon points="0,0 21,0 21,18 0,18" mask="url(#myMask)" fill="white"></polygon>
</svg>