<svg xmlns="http://www.w3.org/2000/svg" id="Layer_1" width="101.6" height="34.1" data-name="Layer 1">
  <defs/>
  <path fill="black" d="M19.1 21.5c0-2.7-.5-5.3-.4-8 0-2.2.4-4.4-.4-6.5l.1-.7c.2-1-3.2-.5-3.8.5a.8.8 0 00-.3 1 2 2 0 010 .2 77.8 77.8 0 01-2.6 9.4L10.4 21a36.4 36.4 0 01-1.6-3.5c-1.4-3.4-2.6-6.9-4.3-10.2.2-1.5-3.2-1.4-3.9 0a8.7 8.7 0 00-.4 5.2 44.7 44.7 0 01.4 6.1c0 4 .3 8 .4 12A1 1 0 00.9 32a3 3 0 00.6.6c.9.7 3.5 0 3.5-1.3 0-4.2-.3-8.3-.5-12.4v-1.2l.2.4A33.5 33.5 0 007 22.7a21.7 21.7 0 011.8 4.7.8.8 0 00-.2.7c0 .2 0 .3.2.4a2.7 2.7 0 002.5 0 6.3 6.3 0 00.9-.4c.3-.2.8-.7.7-1.2a2.3 2.3 0 01-.1-.3 26 26 0 001-3.9 24.1 24.1 0 011.3-4.1l.2 1.8c.2 2.6 0 5.1 0 7.7a11.3 11.3 0 00.2 2.4 11 11 0 01.3 1.9.8.8 0 00.3 1.4 3.3 3.3 0 002.8-.7c1.2-1.1.6-2.9.3-4.3-.4-2.3.1-5 0-7.3zM27.5 22.2c0-2-.8-3.9-.8-5.9a48 48 0 00-.1-6.9c-.1-.7-4 .1-4 1a38.6 38.6 0 01.2 6.4 40.5 40.5 0 00.7 6c.3 2 0 4 .2 6.1.1 1 .7 2.8 0 3.6-.3.5 1.5.4 1.6.3a3.9 3.9 0 002.3-1c.7-.8.2-2.4 0-3.3a54.6 54.6 0 01-.1-6.3zM43.8 18.9c-2-2.8-5.9-.8-8.5-1.6-1.4-.4-1.4-2.3-1.4-3.4a35.9 35.9 0 00-.3-4.1 3.4 3.4 0 01.7-3 3.8 3.8 0 01.9-.3 8.7 8.7 0 011 0c1.6-.1 4.6.2 4 2.4-.2 1 3.6.5 4-.6 1.1-4.6-7.4-3.7-9.8-3.1-2.2.6-4.6 1.9-4.7 4.4a36 36 0 00.3 3.6c0 1.4-.2 2.8.3 4.1 1 3 5.5 1.6 7.8 1.8 3.8.2 2.7 5.4 2.7 7.8 0 1.3 1.2 3.5.2 4.5-.6.7-2 .7-2.8.8s-2.2.3-2.7-.5c-1-1.4 0-3.7-.1-5.4-.2-.9-4.1 0-4 1 .4 2.7-1.3 6.2 2.5 6.7a18 18 0 007.5-1 8.8 8.8 0 003.2-1.8c1-.9.7-2.3.4-3.5-.7-3 .7-6.3-1.2-8.8zM61.2 18.7c-.2-3.8-.7-7.5-.8-11.3 0-2-4-1.3-4 .3 0 3.6.5 7.2.7 10.8v.2l-5.8.2c.2-4.6-.6-9.2-.5-13.8 0-.6-3.8-.1-3.9 1-.2 4.4.6 8.9.5 13.4 0 2.1-.3 4.2-.3 6.4a21 21 0 00.3 3.2 8.4 8.4 0 01.2 3.3c-.2.8 3.6.3 3.9-.6.5-1.8-.2-4-.4-5.9a30.8 30.8 0 010-5.2 30.1 30.1 0 016.2 0 144.1 144.1 0 00.5 7.6 10.5 10.5 0 01-.3 3.4c-.7 2.1 3.2 2 3.8.4.7-1.9.5-4.2.4-6.2-.1-2.4-.5-4.8-.5-7.2zM78 23.1a74.5 74.5 0 00-3.5-7.8l2.9-5.9c.8-1.8 1.4-3.8 3-5 .7-.5.6-1-.2-1a4.4 4.4 0 00-2.7.7 10.7 10.7 0 00-3.2 4.3l-3 6-.2.5a1.1 1.1 0 00-.6 1.2 68 68 0 01-2.5 4.7c-.3-5.6-1-11.1-1.2-16.6 0-1.3-4-.5-3.9 1 .3 6.8 1.2 13.7 1.3 20.5-.3.4-.2.5 0 .6 0 1.8 0 3.5-.2 5.3-.5.7.5 1.1 1 1.1h.2c.7 0 2.6-.3 2.7-1.3A60.2 60.2 0 0068 25a31.1 31.1 0 004-5.7 29.7 29.7 0 012 4.6c1 2.8 2.4 5.3 3.2 8 .6 1.8 4.5.8 4-1-1-2.6-2.3-5.1-3.2-7.9zM101.6 18.5c-.2-.8-1.4-.8-2.3-.8v-1c-.1-2.6-.1-5.3-.4-8-.2-2.4-1.5-3.3-4-3.2a24 24 0 00-7.4 1.4 7 7 0 00-4.6 5.7c-.6 3 .2 6.2.4 9.2v10.5c0 .6 4 0 4-1V23c0-.8 0-1.6-.2-2.4 1.4-.6 3.7 0 5 .1a15.9 15.9 0 003.3-.3l.2 7c0 1.1.5 3.5-.3 4.5-.4.5 1.5.3 1.5.3a4 4 0 002.3-1c1-1.1.5-3.8.4-5.1l-.1-5.8c1.1-.2 2.4-1 2.2-1.8zM87 18.4l-.3-3.8c-.2-2.3.1-5.6 2.3-7a7 7 0 012.3-.4 3.7 3.7 0 012.9.2c1.2.8.9 3.6.9 4.8l.3 6a13.3 13.3 0 01-1.7.1c-2.3 0-4.6-.4-6.7 0zM24.1 6.7a3.2 3.2 0 001.5-.5l.2-.2c.6-.3 1-.8.8-1.4a8 8 0 01-.5-3.4c0-1-1-1.2-1.7-1.2s-2.2.6-2.2 1.5a15.7 15.7 0 00.1 3 2.5 2.5 0 00-.1.4.7.7 0 00.1.6V6a1 1 0 00.5.5 2.2 2.2 0 001.3.2z" class="cls-1"/>
</svg>
